<svg width="80" height="90" viewBox="0 0 80 90" fill="none" xmlns="http://www.w3.org/2000/svg">
<path d="M6 10H24V34C24 39.5228 19.5228 44 14 44C8.47715 44 4 39.5228 4 34V10C4 8.89543 4.89543 8 6 8H22C23.1046 8 24 8.89543 24 10" stroke="#82B8B5" stroke-width="2.5" stroke-miterlimit="10" stroke-linejoin="round"/>
<path d="M14 44V86" stroke="#82B8B5" stroke-width="2.5" stroke-miterlimit="10" stroke-linecap="round"/>
<path d="M40 42C34.4772 42 30 35.5081 30 27.5C30 19.4919 34.4772 13 40 13C45.5228 13 50 19.4919 50 27.5C50 35.5081 45.5228 42 40 42Z" stroke="#82B8B5" stroke-width="2.5" stroke-miterlimit="10"/>
<path d="M40 42V86" stroke="#82B8B5" stroke-width="2.5" stroke-miterlimit="10" stroke-linecap="round"/>
<path d="M60 10V32" stroke="#82B8B5" stroke-width="2.5" stroke-miterlimit="10" stroke-linecap="round"/>
<path d="M68 8V32" stroke="#82B8B5" stroke-width="2.5" stroke-miterlimit="10" stroke-linecap="round"/>
<path d="M76 10V32" stroke="#82B8B5" stroke-width="2.5" stroke-miterlimit="10" stroke-linecap="round"/>
<path d="M60 32C60 38.6274 63.5817 42 68 42C72.4183 42 76 38.6274 76 32" stroke="#82B8B5" stroke-width="2.5" stroke-miterlimit="10" stroke-linejoin="round"/>
<path d="M68 42V86" stroke="#82B8B5" stroke-width="2.5" stroke-miterlimit="10" stroke-linecap="round"/>
<path d="M9 20H19" stroke="#FFB583" stroke-width="2" stroke-miterlimit="10" stroke-linecap="round"/>
<path d="M9 28H19" stroke="#FFB583" stroke-width="2" stroke-miterlimit="10" stroke-linecap="round"/>
<path d="M40 22V34" stroke="#FFB583" stroke-width="2" stroke-miterlimit="10" stroke-linecap="round"/>
</svg>
